<?xml version="1.0" encoding="UTF-8"?><svg id="Layer_1" xmlns="http://www.w3.org/2000/svg" viewBox="0 0 491.5 372.27"><defs><style>.cls-1{fill:none;stroke:#fff;stroke-miterlimit:2.61;stroke-width:20px;}</style></defs><path class="cls-1" d="M59.39,26.95H430.77c18.34,0,33.33,15,33.33,33.33v242.82c0,18.34-15,33.33-33.33,33.33H59.39c-18.34,0-33.33-15-33.33-33.33V60.28c0-18.34,15-33.33,33.33-33.33h0Z"/><path class="cls-1" d="M59.39,26.95H430.77c12.89,0,24.12,7.41,29.66,18.17-1.23,4.93-3.75,9.6-7.58,13.44l-187.3,187.31c-11.26,11.26-29.67,11.26-40.94,0L37.32,58.56c-3.84-3.84-6.36-8.51-7.58-13.44,5.54-10.77,16.77-18.17,29.66-18.17h0Z"/><line class="cls-1" x1="174.2" y1="195.45" x2="39.44" y2="330.21"/><line class="cls-1" x1="317.2" y1="195.45" x2="451.96" y2="330.21"/></svg>