<?xml version="1.0" encoding="UTF-8"?><svg id="Layer_1" xmlns="http://www.w3.org/2000/svg" viewBox="0 0 570.67 522.54"><defs><style>.cls-1{stroke-width:29px;}.cls-1,.cls-2{fill:none;stroke:#fff;stroke-miterlimit:2.61;}.cls-2{stroke-width:23px;}</style></defs><g><path class="cls-1" d="M88.44,38.36H484.9c26.51,0,48.19,21.7,48.19,48.19V351.64c0,26.49-21.7,48.19-48.19,48.19H88.44c-26.49,0-48.19-21.68-48.19-48.19V86.55c0-26.51,21.68-48.19,48.19-48.19h0Z"/><line class="cls-1" x1="40.25" y1="321.43" x2="533.08" y2="321.43"/><polygon class="cls-1" points="251.06 399.83 322.28 399.83 322.28 439.64 383.63 439.64 383.63 469.97 322.28 469.97 251.06 469.97 189.7 469.97 189.7 439.64 251.06 439.64 251.06 399.83 251.06 399.83"/><path class="cls-1" d="M286.66,98.49c17.97,0,32.53,14.56,32.53,32.53s-14.56,32.52-32.53,32.52-32.52-14.56-32.52-32.52,14.56-32.53,32.52-32.53h0Z"/><path class="cls-1" d="M226.1,224.12c0-33.45,27.11-60.57,60.57-60.57s60.57,27.11,60.57,60.57"/></g><g><path class="cls-2" d="M87.1,45.36H483.56c26.51,0,48.19,21.7,48.19,48.19V358.64c0,26.49-21.7,48.19-48.19,48.19H87.1c-26.49,0-48.19-21.68-48.19-48.19V93.55c0-26.51,21.68-48.19,48.19-48.19h0Z"/><line class="cls-2" x1="38.92" y1="328.44" x2="531.75" y2="328.44"/><polygon class="cls-2" points="249.73 406.83 320.95 406.83 320.95 446.64 382.3 446.64 382.3 476.97 320.95 476.97 249.73 476.97 188.37 476.97 188.37 446.64 249.73 446.64 249.73 406.83 249.73 406.83"/><path class="cls-2" d="M285.33,105.5c17.97,0,32.53,14.56,32.53,32.53s-14.56,32.52-32.53,32.52-32.52-14.56-32.52-32.52,14.56-32.53,32.52-32.53h0Z"/><path class="cls-2" d="M224.77,231.12c0-33.45,27.11-60.57,60.57-60.57s60.57,27.11,60.57,60.57"/></g></svg>